<?xml version="1.0" encoding="utf-8"?>
<!-- Generator: Adobe Illustrator 16.0.0, SVG Export Plug-In . SVG Version: 6.00 Build 0)  -->
<!DOCTYPE svg PUBLIC "-//W3C//DTD SVG 1.1//EN" "http://www.w3.org/Graphics/SVG/1.1/DTD/svg11.dtd">
<svg version="1.1" id="Layer_2" xmlns="http://www.w3.org/2000/svg" xmlns:xlink="http://www.w3.org/1999/xlink" x="0px" y="0px"
	 width="24.5px" height="21.167px" viewBox="0 0 24.5 21.167" enable-background="new 0 0 24.5 21.167" xml:space="preserve">
<path d="M12.25,20.453c-4.671,0-8.458-1.266-8.458-2.82c0-0.854,0-1.783,0-2.82c0-0.244,0.123-0.477,0.299-0.703
	c0.943,1.215,4.222,2.113,8.16,2.113s7.216-0.898,8.159-2.113c0.176,0.227,0.299,0.459,0.299,0.703c0,0.816,0,1.684,0,2.82
	C20.708,19.187,16.92,20.453,12.25,20.453z M12.25,14.812c-4.671,0-8.458-1.262-8.458-2.818c0-0.854,0-1.782,0-2.82
	c0-0.149,0.057-0.294,0.132-0.438l0,0c0.042-0.091,0.099-0.18,0.167-0.267c0.943,1.214,4.222,2.115,8.16,2.115
	s7.216-0.9,8.159-2.115c0.067,0.087,0.124,0.176,0.167,0.267l0,0c0.075,0.144,0.132,0.29,0.132,0.438c0,0.816,0,1.682,0,2.82
	C20.708,13.55,16.92,14.812,12.25,14.812z M12.25,9.174c-4.671,0-8.458-1.264-8.458-2.819c0-0.446,0-0.917,0-1.41
	c0-0.448,0-0.914,0-1.41c0-1.556,3.788-2.819,8.458-2.819c4.67,0,8.458,1.263,8.458,2.819c0,0.44,0,0.906,0,1.41
	c0,0.432,0,0.887,0,1.41C20.708,7.91,16.92,9.174,12.25,9.174z M12.25,2.125c-3.114,0-5.639,0.63-5.639,1.409
	c0,0.78,2.525,1.41,5.639,1.41c3.113,0,5.639-0.63,5.639-1.41C17.889,2.755,15.363,2.125,12.25,2.125z"/>
</svg>
