<?xml version="1.0" encoding="utf-8"?>
<!-- Generator: Adobe Illustrator 16.0.0, SVG Export Plug-In . SVG Version: 6.00 Build 0)  -->
<!DOCTYPE svg PUBLIC "-//W3C//DTD SVG 1.1//EN" "http://www.w3.org/Graphics/SVG/1.1/DTD/svg11.dtd">
<svg version="1.1" id="Layer_2" xmlns="http://www.w3.org/2000/svg" xmlns:xlink="http://www.w3.org/1999/xlink" x="0px" y="0px"
	 width="46.464px" height="28.75px" viewBox="-1.582 -8.375 46.464 28.75" enable-background="new -1.582 -8.375 46.464 28.75"
	 xml:space="preserve">
<g id="layer1" transform="translate(121.06306,-355.93976)">
	<path id="path2838" d="M-120.095,363.639c-0.008,1.537,1.118,2.452,2.915,2.036v-4.073
		C-119.001,361.049-120.088,362.17-120.095,363.639 M-117.126,355.718h2.475v11.719c-2.372,0.388-4.644,0.632-6.271-0.279
		c-2.094-1.168-2.261-4.887-0.604-6.544c0.838-0.839,2.529-1.429,4.345-1.043v-3.686
		C-117.185,355.805-117.188,355.728-117.126,355.718"/>
	<path id="path2840" d="M-110.635,358.304h-2.475v-2.586h2.475V358.304L-110.635,358.304z"/>
	<path id="path2844" d="M-80.931,365.784c2.699,1.049,2.999-4.83,0.274-4.291C-82.347,361.829-82.293,365.256-80.931,365.784
		 M-80.82,359.46c2.059-0.222,3.613,0.687,4.235,2.09c1.058,2.39-0.059,5.135-1.762,5.941c-0.882,0.418-1.806,0.457-2.639,0.386
		c-2.58-0.225-4.206-2.856-3.303-5.776c0.144-0.458,0.304-0.737,0.388-0.881C-83.343,360.266-82.393,359.627-80.82,359.46"/>
	<path id="path2848" d="M-107.225,364.849c-0.685,1.151,1.035,1.425,2.146,1.103v-1.709
		C-105.931,364.364-106.903,364.307-107.225,364.849 M-102.879,367.545c-2.045,0.118-5.151,0.812-6.271-0.549
		c-0.657-0.804-0.586-2.333,0-3.082c0.757-0.968,2.413-1.18,3.906-1.32c0.135-0.333,0.042-0.877-0.111-1.101
		c-1.366-0.346-2.723,0.193-3.687,0.606v-1.926c1.455-0.668,4.823-1.372,5.832,0.165c0.528,0.807,0.329,2.213,0.329,3.466v3.74
		H-102.879z"/>
	<path id="path2852" d="M-94.189,367.655h-2.474v-3.191c0-1.051,0.169-2.381-0.386-2.806c-0.434-0.332-1.465-0.165-2.09,0v5.997
		h-2.477v-7.645c2.531-0.658,7.1-1.364,7.424,1.814C-94.026,363.391-94.305,365.742-94.189,367.655"/>
	<path id="path2856" d="M-90.503,365.014c0.416,0.676,1.545,0.928,2.477,0.493c-0.051-1.285-0.069-2.605-0.056-3.958
		C-90.219,360.984-91.498,363.407-90.503,365.014 M-84.288,359.788c-0.22,0.66-0.542,1.216-0.826,1.814
		c-0.256,0.059-0.475-0.1-0.603,0c-0.058,2.683,0.57,6.319-0.497,8.251c-0.641,1.164-1.821,1.916-3.628,2.037
		c-1.318,0.089-2.34-0.126-3.302-0.496v-2.309c1.128,0.658,3.981,1.196,4.785-0.166c0.237-0.4,0.222-0.815,0.33-1.43
		c-0.518,0.026-1.02,0.266-1.65,0.274c-2.594,0.034-4.198-2.03-3.576-4.896c0.244-1.108,0.891-2,1.763-2.531
		C-89.686,359.237-86.909,359.322-84.288,359.788"/>
	<path id="path2860" d="M-110.635,359.614c-0.001,1.821-0.001,3.131-0.001,5.345c-0.105,2.178-0.081,3.907-0.876,4.949
		c-0.158,0.205-0.492,0.507-0.771,0.716c-0.235,0.178-0.682,0.538-0.935,0.553c-0.257,0.014-0.914-0.355-1.211-0.495
		c-0.39-0.185-0.751-0.429-1.155-0.55c0.942-0.586,1.835-1.023,2.201-2.201c0.317-1.027,0.274-2.514,0.274-3.963
		c0-1.431,0.006-3.093,0.006-4.354H-110.635L-110.635,359.614z"/>
</g>
</svg>
