<?xml version="1.0" encoding="utf-8"?>
<!-- Generator: Adobe Illustrator 16.0.0, SVG Export Plug-In . SVG Version: 6.00 Build 0)  -->
<!DOCTYPE svg PUBLIC "-//W3C//DTD SVG 1.1//EN" "http://www.w3.org/Graphics/SVG/1.1/DTD/svg11.dtd">
<svg version="1.1" id="Layer_2" xmlns="http://www.w3.org/2000/svg" xmlns:xlink="http://www.w3.org/1999/xlink" x="0px" y="0px"
	 width="24.5px" height="21.167px" viewBox="0 0 24.5 21.167" enable-background="new 0 0 24.5 21.167" xml:space="preserve">
<path d="M14.695,12.652c0.624,1.02,1.436,1.771,2.872,1.771c1.207,0,1.979-0.604,1.979-1.438c0-0.998-0.793-1.354-2.121-1.932
	l-0.729-0.314c-2.099-0.895-3.496-2.016-3.496-4.386c0-2.184,1.664-3.846,4.266-3.846c1.85,0,3.182,0.645,4.142,2.332l-2.27,1.455
	c-0.498-0.895-1.038-1.249-1.872-1.249c-0.854,0-1.394,0.541-1.394,1.249c0,0.873,0.539,1.228,1.79,1.768l0.728,0.311
	c2.474,1.061,3.872,2.141,3.872,4.573c0,2.623-2.06,4.059-4.826,4.059c-2.703,0-4.45-1.289-5.307-2.977L14.695,12.652z
	 M4.409,12.904c0.457,0.812,0.874,1.5,1.874,1.5c0.956,0,1.561-0.375,1.561-1.83V2.672h2.912v9.938c0,3.018-1.769,4.389-4.349,4.389
	c-2.331,0-3.681-1.205-4.368-2.658L4.409,12.904z"/>
</svg>
