<?xml version="1.0" encoding="utf-8"?>
<!-- Generator: Adobe Illustrator 16.0.0, SVG Export Plug-In . SVG Version: 6.00 Build 0)  -->
<!DOCTYPE svg PUBLIC "-//W3C//DTD SVG 1.1//EN" "http://www.w3.org/Graphics/SVG/1.1/DTD/svg11.dtd">
<svg version="1.1" id="Layer_2" xmlns="http://www.w3.org/2000/svg" xmlns:xlink="http://www.w3.org/1999/xlink" x="0px" y="0px"
	 width="24.5px" height="21.167px" viewBox="0 0 24.5 21.167" enable-background="new 0 0 24.5 21.167" xml:space="preserve">
<path d="M2.31,7.146h3.502C6.841,7.154,7.586,7.45,8.047,8.035c0.462,0.583,0.614,1.381,0.458,2.392
	c-0.061,0.461-0.197,0.915-0.406,1.359c-0.201,0.444-0.479,0.845-0.836,1.202c-0.436,0.453-0.902,0.741-1.398,0.863
	c-0.497,0.123-1.012,0.184-1.542,0.184H2.754l-0.496,2.483H0.441L2.31,7.146L2.31,7.146 M3.839,8.636l-0.784,3.921
	c0.052,0.009,0.104,0.013,0.156,0.013c0.061,0,0.122,0,0.183,0c0.836,0.008,1.534-0.075,2.091-0.249
	c0.558-0.184,0.933-0.819,1.125-1.908c0.157-0.915,0-1.443-0.471-1.582c-0.462-0.14-1.041-0.205-1.738-0.196
	c-0.104,0.008-0.205,0.013-0.3,0.013c-0.087,0-0.179,0-0.274,0L3.839,8.636"/>
<path d="M10.574,4.649h1.804l-0.509,2.496h1.62c0.889,0.018,1.551,0.2,1.987,0.549c0.444,0.349,0.575,1.011,0.392,1.986
	l-0.875,4.353h-1.83l0.836-4.157c0.087-0.436,0.061-0.745-0.079-0.928c-0.139-0.184-0.439-0.275-0.901-0.275l-1.451-0.013
	l-1.072,5.373H8.692L10.574,4.649L10.574,4.649"/>
<path d="M17.804,7.146h3.503c1.028,0.009,1.773,0.305,2.234,0.889c0.462,0.583,0.614,1.381,0.458,2.392
	c-0.061,0.461-0.196,0.915-0.405,1.359c-0.2,0.444-0.479,0.845-0.836,1.202c-0.436,0.453-0.902,0.741-1.398,0.863
	c-0.497,0.123-1.011,0.184-1.542,0.184h-1.568l-0.497,2.483h-1.817L17.804,7.146L17.804,7.146 M19.333,8.636l-0.784,3.921
	c0.052,0.009,0.104,0.013,0.157,0.013c0.061,0,0.122,0,0.183,0c0.837,0.008,1.534-0.075,2.091-0.249
	c0.557-0.184,0.932-0.819,1.124-1.908c0.157-0.915,0-1.443-0.47-1.582c-0.462-0.14-1.041-0.205-1.739-0.196
	c-0.104,0.008-0.204,0.013-0.3,0.013c-0.086,0-0.178,0-0.274,0L19.333,8.636"/>
</svg>
