<?xml version="1.0" encoding="utf-8"?>
<!-- Generator: Adobe Illustrator 16.0.0, SVG Export Plug-In . SVG Version: 6.00 Build 0)  -->
<!DOCTYPE svg PUBLIC "-//W3C//DTD SVG 1.1//EN" "http://www.w3.org/Graphics/SVG/1.1/DTD/svg11.dtd">
<svg version="1.1" id="Layer_2" xmlns="http://www.w3.org/2000/svg" xmlns:xlink="http://www.w3.org/1999/xlink" x="0px" y="0px"
	 width="24.5px" height="21.167px" viewBox="0 0 24.5 21.167" enable-background="new 0 0 24.5 21.167" xml:space="preserve">
<path d="M12.174,0.155c-5.321,0-4.99,2.308-4.99,2.308L7.19,4.854h5.08v0.718H5.173c0,0-3.407-0.386-3.407,4.985
	s2.974,5.18,2.974,5.18h1.773v-2.492c0,0-0.095-2.973,2.926-2.973c3.021,0,5.038,0,5.038,0s2.831,0.045,2.831-2.736s0-4.599,0-4.599
	S17.737,0.155,12.174,0.155z M9.374,1.763c0.506,0,0.914,0.408,0.914,0.914c0,0.505-0.408,0.914-0.914,0.914
	c-0.505,0-0.915-0.409-0.915-0.914C8.459,2.171,8.869,1.763,9.374,1.763z"/>
<path d="M12.327,21.013c5.323,0,4.99-2.307,4.99-2.307l-0.008-2.393h-5.079v-0.719h7.096c0,0,3.407,0.387,3.407-4.985
	c0-5.37-2.972-5.179-2.972-5.179h-1.776v2.491c0,0,0.097,2.973-2.925,2.973c-3.021,0-5.039,0-5.039,0s-2.83-0.044-2.83,2.735
	c0,2.783,0,4.602,0,4.602S6.763,21.013,12.327,21.013z M15.127,19.406c-0.505,0-0.913-0.408-0.913-0.914s0.408-0.914,0.913-0.914
	c0.506,0,0.914,0.408,0.914,0.914S15.633,19.406,15.127,19.406z"/>
</svg>
