<?xml version="1.0" encoding="utf-8"?>
<!-- Generator: Adobe Illustrator 16.0.0, SVG Export Plug-In . SVG Version: 6.00 Build 0)  -->
<!DOCTYPE svg PUBLIC "-//W3C//DTD SVG 1.1//EN" "http://www.w3.org/Graphics/SVG/1.1/DTD/svg11.dtd">
<svg version="1.1" id="Layer_2" xmlns="http://www.w3.org/2000/svg" xmlns:xlink="http://www.w3.org/1999/xlink" x="0px" y="0px"
	 width="24.5px" height="21.167px" viewBox="0 0 24.5 21.167" enable-background="new 0 0 24.5 21.167" xml:space="preserve">
<g id="_x35_151e0c8492e5103c096af88a51f6584">
	<path d="M22.5,4.586l-0.438,0.656c0,0-1.094-1.239-3.099-1.021c-2.006,0.219-5.541,2.26-6.088,6.744
		c-0.547,4.483,1.604,9.37,1.604,9.37H4.783c0,0-0.255-1.605,0.365-4.668c0.619-3.061,1.53-5.102,3.098-8.019
		c1.567-2.916,4.083-5.322,7.729-5.65C19.62,1.67,22.5,4.586,22.5,4.586z M2.851,15.449l-0.219,1.824l1.787,0.219l0.328-1.896
		L2.851,15.449z M6.351,10.018L4.673,9.362l-0.546,1.531l1.713,0.546L6.351,10.018z M9.194,5.389L7.918,4.55l-1.02,1.13l1.312,0.875
		L9.194,5.389z M12.876,2.399l-0.875-0.984l-1.202,0.62l0.874,1.057L12.876,2.399z M16.776,1.853l-0.146-0.948l-1.567-0.073
		l0.219,1.057L16.776,1.853z M21.333,2.837l-1.202-0.875l-0.037,0.656l1.021,0.547L21.333,2.837z M19.911,5.315l0.984,0.109V4.988
		l-0.984-0.219V5.315z M16.776,5.243l0.474,0.875l0.693-0.547l-0.146-0.583L16.776,5.243z M16.012,7.467l-0.729-1.094l-0.766,0.692
		l1.058,1.167L16.012,7.467z M13.351,10.347l1.238,1.057l0.292-1.203l-1.057-0.802L13.351,10.347z M13.24,13.992l1.531,0.656
		l-0.072-1.203l-1.386-0.729L13.24,13.992z M16.048,18.658l-0.692-1.422h-1.604l0.364,1.312L16.048,18.658z"/>
</g>
</svg>
