<?xml version="1.0" encoding="utf-8"?>
<!-- Generator: Adobe Illustrator 16.0.0, SVG Export Plug-In . SVG Version: 6.00 Build 0)  -->
<!DOCTYPE svg PUBLIC "-//W3C//DTD SVG 1.1//EN" "http://www.w3.org/Graphics/SVG/1.1/DTD/svg11.dtd">
<svg version="1.1" id="Layer_2" xmlns="http://www.w3.org/2000/svg" xmlns:xlink="http://www.w3.org/1999/xlink" x="0px" y="0px"
	 width="24.5px" height="21.167px" viewBox="0 0 24.5 21.167" enable-background="new 0 0 24.5 21.167" xml:space="preserve">
<circle cx="12.265" cy="10.564" r="2.064"/>
<path fill="none" stroke="#000000" stroke-miterlimit="10" d="M12.265,6.368c2.771,0,5.346,0.397,7.287,1.065
	c2.339,0.806,3.777,2.026,3.777,3.131c0,1.151-1.524,2.448-4.036,3.28c-1.898,0.629-4.397,0.958-7.028,0.958
	c-2.697,0-5.251-0.309-7.17-0.965c-2.43-0.83-3.893-2.144-3.893-3.273c0-1.096,1.373-2.307,3.678-3.111
	C6.829,6.774,9.466,6.368,12.265,6.368z"/>
<path fill="none" stroke="#000000" stroke-miterlimit="10" d="M8.612,8.478c1.384-2.401,3.015-4.432,4.563-5.78
	c1.866-1.624,3.642-2.26,4.599-1.708c0.998,0.575,1.359,2.543,0.825,5.134c-0.404,1.959-1.367,4.288-2.681,6.566
	c-1.348,2.336-2.891,4.395-4.418,5.729c-1.933,1.69-3.802,2.302-4.78,1.737c-0.95-0.547-1.313-2.342-0.857-4.741
	C6.248,13.39,7.214,10.902,8.612,8.478z"/>
<path fill="none" stroke="#000000" stroke-miterlimit="10" d="M8.615,12.697c-1.388-2.398-2.334-4.826-2.728-6.84
	C5.412,3.43,5.748,1.574,6.704,1.02c0.997-0.577,2.882,0.093,4.86,1.849c1.496,1.329,3.032,3.326,4.35,5.603
	c1.352,2.334,2.364,4.699,2.758,6.689c0.499,2.519,0.095,4.443-0.882,5.008c-0.949,0.549-2.685-0.032-4.536-1.625
	C11.69,17.198,10.017,15.119,8.615,12.697z"/>
</svg>
