<?xml version="1.0" encoding="utf-8"?>
<!-- Generator: Adobe Illustrator 16.0.0, SVG Export Plug-In . SVG Version: 6.00 Build 0)  -->
<!DOCTYPE svg PUBLIC "-//W3C//DTD SVG 1.1//EN" "http://www.w3.org/Graphics/SVG/1.1/DTD/svg11.dtd">
<svg version="1.1" id="Layer_2" xmlns="http://www.w3.org/2000/svg" xmlns:xlink="http://www.w3.org/1999/xlink" x="0px" y="0px"
	 width="24.5px" height="21.167px" viewBox="0 0 24.5 21.167" enable-background="new 0 0 24.5 21.167" xml:space="preserve">
<g>
	<path d="M16.331,14.409c0.781-0.083,1.373-0.755,1.348-1.562c-0.026-0.808-0.701-1.455-1.508-1.455h-0.055
		c-0.834,0.028-1.48,0.729-1.454,1.562c0.026,0.406,0.188,0.755,0.431,0.996c-0.916,1.807-2.315,3.126-4.417,4.229
		c-1.427,0.753-2.907,1.024-4.389,0.833c-1.212-0.16-2.155-0.698-2.748-1.588c-0.861-1.318-0.942-2.746-0.215-4.174
		c0.512-1.022,1.32-1.778,1.832-2.154c-0.108-0.35-0.27-0.941-0.351-1.373c-3.904,2.827-3.5,6.651-2.315,8.456
		c0.889,1.346,2.692,2.181,4.686,2.181c0.538,0,1.077-0.055,1.614-0.187C12.238,19.498,14.85,17.45,16.331,14.409z"/>
	<path d="M21.071,11.069c-2.048-2.396-5.063-3.717-8.51-3.717h-0.431c-0.242-0.483-0.754-0.808-1.32-0.808h-0.053
		C9.922,6.572,9.276,7.271,9.303,8.107c0.027,0.807,0.7,1.454,1.508,1.454h0.054c0.592-0.027,1.104-0.404,1.32-0.915h0.484
		c2.047,0,3.985,0.591,5.736,1.75c1.347,0.888,2.316,2.045,2.854,3.446c0.458,1.13,0.432,2.236-0.055,3.178
		c-0.755,1.428-2.02,2.209-3.689,2.209c-1.076,0-2.1-0.323-2.638-0.566c-0.296,0.269-0.835,0.7-1.212,0.97
		c1.158,0.54,2.342,0.835,3.475,0.835c2.583,0,4.497-1.428,5.224-2.854C23.145,16.05,23.091,13.359,21.071,11.069z"/>
	<path d="M7.392,14.866C7.418,15.673,8.091,16.32,8.9,16.32h0.053c0.835-0.026,1.481-0.728,1.455-1.562
		c-0.027-0.809-0.701-1.453-1.507-1.453H8.846c-0.055,0-0.135,0-0.189,0.026C7.553,11.5,7.096,9.507,7.257,7.352
		c0.106-1.615,0.646-3.015,1.588-4.173c0.781-0.997,2.29-1.481,3.311-1.508c2.855-0.054,4.068,3.5,4.149,4.927
		c0.349,0.081,0.94,0.271,1.347,0.405c-0.323-4.364-3.017-6.625-5.602-6.625c-2.424,0-4.659,1.75-5.547,4.336
		c-1.24,3.446-0.432,6.757,1.076,9.372C7.445,14.274,7.364,14.571,7.392,14.866z"/>
</g>
</svg>
