<?xml version="1.0" encoding="utf-8"?>
<!-- Generator: Adobe Illustrator 16.0.0, SVG Export Plug-In . SVG Version: 6.00 Build 0)  -->
<!DOCTYPE svg PUBLIC "-//W3C//DTD SVG 1.1//EN" "http://www.w3.org/Graphics/SVG/1.1/DTD/svg11.dtd">
<svg version="1.1" id="Layer_2" xmlns="http://www.w3.org/2000/svg" xmlns:xlink="http://www.w3.org/1999/xlink" x="0px" y="0px"
	 width="24.5px" height="21.167px" viewBox="0 0 24.5 21.167" enable-background="new 0 0 24.5 21.167" xml:space="preserve">
<g>
	<polyline fill="#FFFFFF" points="3.349,11.144 12.171,18.845 21.137,11.151 	"/>
	<polygon points="3.207,11.306 12.17,19.13 21.277,11.315 20.997,10.988 12.172,18.561 3.489,10.983 	"/>
	<polygon fill="#FFFFFF" points="12.325,18.487 16.404,13.24 11.977,13.807 	"/>
	<polygon points="12.325,18.487 12.495,18.62 16.894,12.958 11.747,13.62 12.151,19.06 12.495,18.62 12.325,18.487 12.539,18.471 
		12.206,13.994 15.915,13.518 12.155,18.355 12.325,18.487 12.539,18.471 	"/>
	<line fill="none" x1="12.199" y1="18.863" x2="7.406" y2="13.251"/>
	<polyline points="12.362,18.723 7.569,13.113 7.243,13.392 12.036,19.002 	"/>
	<polygon fill="#FFFFFF" points="11.878,13.875 15.366,7.996 8.736,7.781 	"/>
	<polygon points="11.878,13.875 12.063,13.986 15.736,7.792 8.377,7.554 11.865,14.32 12.063,13.986 11.878,13.875 12.069,13.777 
		9.095,8.007 14.994,8.2 11.693,13.765 11.878,13.875 12.069,13.777 	"/>
	<polygon fill="#FFFFFF" points="19.492,12.254 18.899,6.377 15.086,8.388 	"/>
	<polygon points="19.492,12.254 19.707,12.233 19.08,6.038 14.709,8.343 19.761,12.776 19.707,12.233 19.492,12.254 19.634,12.093 
		15.464,8.433 18.718,6.716 19.278,12.275 19.492,12.254 19.634,12.093 	"/>
	<line fill="none" x1="18.474" y1="4.041" x2="21.563" y2="7.158"/>
	<polyline points="18.322,4.191 21.41,7.308 21.716,7.006 18.628,3.889 	"/>
	<polygon fill="#FFFFFF" points="3.587,6.377 5.549,5.982 5.929,4.132 	"/>
	<polygon points="3.587,6.377 3.629,6.588 5.731,6.165 6.278,3.499 2.904,6.734 3.629,6.588 3.587,6.377 3.735,6.533 5.58,4.765 
		5.367,5.8 3.544,6.166 3.587,6.377 3.735,6.533 	"/>
	<polyline fill="#FFFFFF" points="6.647,3.509 5.456,5.998 8.907,8.184 15.115,8.411 18.909,6.435 18.488,3.995 	"/>
	<polygon points="6.453,3.416 5.18,6.076 8.841,8.397 15.164,8.628 19.147,6.552 18.7,3.958 18.276,4.031 18.67,6.317 15.066,8.193 
		8.973,7.971 5.733,5.918 6.841,3.602 	"/>
	<path fill="#FFFFFF" d="M3.394,11.168l5.56-2.982l2.907,5.658C8.861,13.749,5.912,13.253,3.394,11.168z"/>
	<path d="M3.394,11.168l0.102,0.189l5.367-2.879l2.807,5.464l0.191-0.099l0.007-0.215c-2.983-0.096-5.873-0.586-8.337-2.626
		L3.394,11.168l0.102,0.189L3.394,11.168l-0.137,0.165c2.572,2.129,5.582,2.63,8.598,2.726l0.365,0.013L9.046,7.893L3.011,11.13
		l0.246,0.203L3.394,11.168z"/>
	<path fill="#FFFFFF" d="M15.131,8.408l-3.256,5.454c2.653-0.066,5.277-0.367,7.654-1.607L15.131,8.408z"/>
	<path d="M15.131,8.408l-0.186-0.111l-3.456,5.789l0.391-0.009c2.665-0.067,5.324-0.369,7.748-1.632l0.277-0.146l-4.828-4.222
		l-0.132,0.22L15.131,8.408L14.988,8.57l4.398,3.845l0.142-0.161l-0.1-0.191c-2.331,1.217-4.918,1.519-7.56,1.583l0.005,0.215
		l0.185,0.11l3.255-5.454L15.131,8.408L14.988,8.57L15.131,8.408z"/>
	<path fill="#FFFFFF" d="M19.494,12.266c1.768-0.889,3.773-2.691,2.054-5.12l-2.644-0.761L19.494,12.266z"/>
	<path d="M19.494,12.266l0.096,0.191c0.663-0.333,1.359-0.79,1.9-1.369c0.54-0.579,0.928-1.293,0.928-2.12
		c0-0.608-0.211-1.265-0.695-1.946l-0.044-0.061L18.658,6.09l0.652,6.509l0.279-0.142L19.494,12.266l0.214-0.021l-0.557-5.566
		l2.336,0.674l0.061-0.207L21.371,7.27c0.444,0.627,0.617,1.19,0.617,1.697c0,0.686-0.321,1.297-0.812,1.827
		c-0.491,0.528-1.149,0.963-1.777,1.278L19.494,12.266l0.214-0.021L19.494,12.266z"/>
	<path fill="#FFFFFF" d="M3.587,6.377c-2.395,2.14-0.852,4.109-0.197,4.801"/>
	<path d="M3.444,6.217C2.442,7.109,2.078,8.013,2.08,8.815c0.004,1.182,0.752,2.083,1.153,2.511l0.312-0.296
		C3.167,10.634,2.505,9.803,2.51,8.815c0.002-0.67,0.287-1.439,1.22-2.278L3.444,6.217z"/>
	<path fill="#FFFFFF" d="M15.129,8.42c0.384,1.605,1.16,4.835,1.178,4.897c0.028,0.1,2.213-0.485,3.178-1.087L15.129,8.42z"/>
	<path d="M15.129,8.42l-0.208,0.05c0.383,1.608,1.157,4.827,1.178,4.905l0.002,0.002l0.089,0.124
		c0.094,0.054,0.123,0.038,0.158,0.043c0.127-0.003,0.298-0.039,0.546-0.1c0.735-0.186,1.991-0.591,2.704-1.03l0.247-0.154
		l-5.082-4.446l0.156,0.656L15.129,8.42l-0.141,0.162l4.354,3.811l0.142-0.162l-0.113-0.182c-0.415,0.259-1.116,0.533-1.74,0.734
		c-0.312,0.101-0.607,0.185-0.841,0.244c-0.228,0.058-0.415,0.089-0.442,0.086v0.101l0.025-0.096l-0.025-0.005v0.101l0.025-0.096
		L16.324,13.3l0.107-0.155l-0.059-0.026L16.324,13.3l0.107-0.155l-0.116,0.17l0.197-0.056l-0.081-0.114l-0.116,0.17l0.197-0.056
		v0.002c-0.014-0.049-0.792-3.291-1.175-4.892L15.129,8.42l-0.141,0.162L15.129,8.42z"/>
	<path fill="#FFFFFF" d="M8.953,8.185l-1.602,5.049c1.571,0.468,3.044,0.592,4.497,0.602L8.953,8.185z"/>
	<path d="M8.953,8.185L8.749,8.119l-1.668,5.258l0.21,0.062c1.597,0.475,3.092,0.601,4.556,0.609l0.354,0.003L8.906,7.621
		L8.749,8.119L8.953,8.185L8.761,8.283l2.895,5.65l0.192-0.099l0.001-0.215c-1.442-0.01-2.89-0.133-4.437-0.592l-0.061,0.206
		l0.205,0.065l1.602-5.05L8.953,8.185L8.761,8.283L8.953,8.185z"/>
	<path fill="#FFFFFF" d="M5.455,5.988L2.304,8.652c-0.169,1.091,0.41,1.779,1.125,2.396C4.145,9.368,5.577,6.013,5.455,5.988z"/>
	<path d="M5.455,5.988L5.316,5.823L2.103,8.54L2.091,8.619c-0.021,0.14-0.032,0.275-0.032,0.405c0,0.977,0.589,1.636,1.229,2.186
		l0.223,0.192l0.116-0.271c0.343-0.807,0.853-1.998,1.276-3.024C5.113,7.594,5.304,7.122,5.442,6.76
		c0.07-0.182,0.125-0.335,0.166-0.457c0.04-0.127,0.065-0.193,0.07-0.297l-0.017-0.09c-0.01-0.04-0.071-0.125-0.166-0.14l-0.1-0.019
		L5.316,5.823L5.455,5.988l-0.04,0.211l0.038-0.203L5.26,6.07c0.009,0.034,0.066,0.114,0.156,0.129l0.038-0.203L5.26,6.07
		l0.166-0.063H5.248L5.26,6.07l0.166-0.063H5.248h0.083L5.248,5.998v0.009h0.083L5.248,5.998c0.001,0.004-0.021,0.094-0.061,0.209
		C4.905,7.038,3.822,9.578,3.23,10.963l0.198,0.085l0.142-0.163c-0.62-0.537-1.079-1.074-1.08-1.86c0-0.107,0.008-0.219,0.027-0.339
		L2.304,8.652l0.139,0.164l3.152-2.664L5.455,5.988l-0.04,0.211L5.455,5.988z"/>
	<path fill="#FFFFFF" d="M18.887,6.381l2.944,3.906c0.593-0.957,0.53-2.019-0.27-3.132L18.887,6.381z"/>
	<path d="M18.887,6.381L18.716,6.51l3.133,4.156l0.166-0.268c0.278-0.45,0.427-0.933,0.427-1.433c0-0.637-0.238-1.288-0.705-1.937
		l-0.044-0.061l-3.365-0.974l0.389,0.516L18.887,6.381l-0.059,0.207l2.673,0.773l0.059-0.207l-0.174,0.126
		c0.43,0.596,0.624,1.158,0.624,1.686c0,0.415-0.119,0.814-0.362,1.206l0.184,0.113l0.172-0.129L19.06,6.251L18.887,6.381
		l-0.059,0.207L18.887,6.381z"/>
	<path fill="#FFFFFF" d="M12.252,2.336c3.682,0.079,7.168,1.438,7.193,3.274c0.021,1.836-3.167,3.055-6.849,2.975
		c-3.68-0.079-7.196-1.35-7.218-3.185C5.354,3.564,8.573,2.258,12.252,2.336z"/>
	<path d="M12.252,2.336l-0.004,0.215c1.815,0.038,3.586,0.395,4.887,0.96c0.649,0.283,1.182,0.617,1.542,0.976
		c0.361,0.362,0.548,0.738,0.554,1.127V5.63c0,0.38-0.156,0.73-0.464,1.063c-0.917,1.003-3.224,1.688-5.828,1.682
		c-0.11,0-0.223-0.001-0.336-0.003c-1.816-0.038-3.595-0.373-4.903-0.917C7.044,7.182,6.51,6.859,6.148,6.507
		C5.784,6.154,5.599,5.786,5.594,5.398V5.38c0-0.38,0.159-0.738,0.471-1.079c0.932-1.029,3.263-1.76,5.874-1.753
		c0.103,0,0.207,0.001,0.31,0.003L12.252,2.336l0.004-0.215c-0.106-0.002-0.213-0.003-0.319-0.003c-1.793,0-3.458,0.321-4.693,0.877
		C6.626,3.274,6.113,3.613,5.747,4.011C5.381,4.407,5.162,4.874,5.163,5.38v0.024c0.007,0.529,0.269,1.009,0.686,1.413
		c1.256,1.205,3.947,1.919,6.745,1.985c0.115,0.002,0.23,0.004,0.345,0.004c1.785-0.001,3.437-0.301,4.66-0.835
		c0.612-0.269,1.12-0.595,1.482-0.985c0.363-0.389,0.58-0.851,0.58-1.355V5.609c-0.007-0.53-0.267-1.013-0.681-1.425
		c-1.245-1.23-3.924-1.996-6.723-2.062L12.252,2.336z"/>
</g>
</svg>
