<?xml version="1.0" encoding="utf-8"?>
<!-- Generator: Adobe Illustrator 16.0.0, SVG Export Plug-In . SVG Version: 6.00 Build 0)  -->
<!DOCTYPE svg PUBLIC "-//W3C//DTD SVG 1.1//EN" "http://www.w3.org/Graphics/SVG/1.1/DTD/svg11.dtd">
<svg version="1.1" id="Layer_1" xmlns="http://www.w3.org/2000/svg" xmlns:xlink="http://www.w3.org/1999/xlink" x="0px" y="0px"
	 width="434.5px" height="61px" viewBox="-69 -44 434.5 61" enable-background="new -69 -44 434.5 61" xml:space="preserve">
<text transform="matrix(1 0 0 1 228.9277 13.7061)" fill="none" stroke="#3A3A3A" stroke-width="1.152" stroke-miterlimit="10" font-family="'Passion'" font-size="72.4909">R</text>
<text transform="matrix(1 0 0 1 253.791 13.7061)" fill="none" stroke="#3A3A3A" stroke-width="1.152" stroke-miterlimit="10" font-family="'Passion'" font-size="72.4909">o</text>
<text transform="matrix(1 0 0 1 314.6836 13.7061)" fill="none" stroke="#3A3A3A" stroke-width="1.152" stroke-miterlimit="10" font-family="'Passion'" font-size="72.4909">s</text>
<text transform="matrix(1 0 0 1 337.373 13.7061)" fill="none" stroke="#3A3A3A" stroke-width="1.152" stroke-miterlimit="10" font-family="'Passion'" font-size="72.4909">s</text>
<text transform="matrix(1 0 0 1 360.0625 13.7061)" fill="none" stroke="#3A3A3A" stroke-width="1.152" stroke-miterlimit="10" font-family="'Passion'" font-size="72.4909">i</text>
<text transform="matrix(1 0 0 1 -67.2627 13.7061)" fill="none" stroke="#3A3A3A" stroke-width="1.152" stroke-miterlimit="10" font-family="'Passion'" font-size="72.4909">K</text>
<text transform="matrix(1 0 0 1 -42.3975 13.7061)" fill="none" stroke="#3A3A3A" stroke-width="1.152" stroke-miterlimit="10" font-family="'Passion'" font-size="72.4909">A</text>
<text transform="matrix(1 0 0 1 8.999 13.7061)" fill="none" stroke="#3A3A3A" stroke-width="1.152" stroke-miterlimit="10" font-family="'Passion'" font-size="72.4909">T</text>
<text transform="matrix(1 0 0 1 32.7734 13.7061)" fill="none" stroke="#3A3A3A" stroke-width="1.152" stroke-miterlimit="10" font-family="'Passion'" font-size="72.4909">A</text>
<text transform="matrix(1 0 0 1 84.1699 13.7061)" fill="none" stroke="#3A3A3A" stroke-width="1.152" stroke-miterlimit="10" font-family="'Passion'" font-size="72.4909">R</text>
<text transform="matrix(1 0 0 1 109.0352 13.7061)" fill="none" stroke="#3A3A3A" stroke-width="1.152" stroke-miterlimit="10" font-family="'Passion'" font-size="72.4909">I</text>
<text transform="matrix(1 0 0 1 120.7783 13.7061)" fill="none" stroke="#3A3A3A" stroke-width="1.152" stroke-miterlimit="10" font-family="'Passion'" font-size="72.4909">N</text>
<text transform="matrix(1 0 0 1 144.9902 13.7061)" fill="none" stroke="#3A3A3A" stroke-width="1.152" stroke-miterlimit="10" font-family="'Passion'" font-size="72.4909">A</text>
</svg>
